<svg width="58" height="42" viewBox="0 0 58 42" fill="none" xmlns="http://www.w3.org/2000/svg">
<g opacity="0.7">
<path d="M42.4536 20.5962L47.9485 19.7885C50.5395 19.7885 52.8625 20.6859 54.9175 22.4808C56.9725 24.2756 58 26.8333 58 30.1538C58 33.5641 56.9278 36.391 54.7835 38.6346C52.5498 40.8782 49.4674 42 45.5361 42C41.5155 42 38.2543 40.4744 35.7526 37.4231C33.2509 34.3718 32 30.9167 32 27.0577C32 21.4936 33.8316 16.3782 37.4948 11.7115C41.0687 6.95513 46.2509 3.05128 53.0412 0L53.9794 2.42307C44.6873 7.89743 40.0412 13.1923 40.0412 18.3077C40.0412 19.8333 40.8454 20.5962 42.4536 20.5962Z" fill="url(#paint0_linear)"/>
<path d="M10.4536 20.5962L15.9485 19.7885C18.5395 19.7885 20.8625 20.6859 22.9175 22.4808C24.9725 24.2756 26 26.8333 26 30.1538C26 33.5641 24.9278 36.391 22.7835 38.6346C20.5498 40.8782 17.4674 42 13.5361 42C9.51546 42 6.25429 40.4744 3.75257 37.4231C1.25086 34.3718 0 30.9167 0 27.0577C0 21.4936 1.83162 16.3782 5.49484 11.7115C9.06873 6.95513 14.2509 3.05128 21.0412 0L21.9794 2.42307C12.6873 7.89743 8.04124 13.1923 8.04124 18.3077C8.04124 19.8333 8.84536 20.5962 10.4536 20.5962Z" fill="url(#paint1_linear)"/>
</g>
<defs>
<linearGradient id="paint0_linear" x1="59.5294" y1="42" x2="33.4064" y2="2.68309" gradientUnits="userSpaceOnUse">
<stop stop-color="#CBCBCB"/>
<stop offset="1" stop-color="#E5E5E5"/>
</linearGradient>
<linearGradient id="paint1_linear" x1="27.5294" y1="42" x2="1.40643" y2="2.68309" gradientUnits="userSpaceOnUse">
<stop stop-color="#CBCBCB"/>
<stop offset="1" stop-color="#E5E5E5"/>
</linearGradient>
</defs>
</svg>
