<svg width="16" height="16" viewBox="0 0 16 16" fill="none" xmlns="http://www.w3.org/2000/svg">
<path d="M8 10.5C9.933 10.5 11.5 8.933 11.5 7C11.5 5.067 9.933 3.5 8 3.5C6.067 3.5 4.5 5.067 4.5 7C4.5 8.933 6.067 10.5 8 10.5Z" stroke="#282829" stroke-linecap="round" stroke-linejoin="round"/>
<path d="M6.4998 10.1621C6.48763 10.5661 6.34953 10.9562 6.10479 11.2779C5.86005 11.5995 5.52091 11.8366 5.1348 11.9561L2.8678 13.0441C2.77211 13.0843 2.67982 13.1321 2.5918 13.1871" stroke="#282829" stroke-linecap="round" stroke-linejoin="round"/>
<path d="M13.408 13.1881C13.3199 13.1331 13.2276 13.0853 13.132 13.0451L10.867 11.9571C10.035 11.5191 9.50195 11.0241 9.50195 10.1631" stroke="#282829" stroke-linecap="round" stroke-linejoin="round"/>
<path d="M8 15.5C12.1421 15.5 15.5 12.1421 15.5 8C15.5 3.85786 12.1421 0.5 8 0.5C3.85786 0.5 0.5 3.85786 0.5 8C0.5 12.1421 3.85786 15.5 8 15.5Z" stroke="#282829" stroke-linecap="round" stroke-linejoin="round"/>
</svg>
