<svg width="20" height="14" viewBox="0 0 20 14" fill="none" xmlns="http://www.w3.org/2000/svg">
<path d="M20 6.01177H18.3333V4.36472H16.6667V6.01177H15V7.65883H16.6667V9.30589H18.3333V7.65883H20V6.01177Z" fill="white"/>
<path d="M13.7917 6.01177H7.5V8.48235H11.0833C10.875 9.51176 9.83333 11.4471 7.08333 11.4471C4.66667 11.4471 2.70833 9.47059 2.70833 7.04118C2.70833 4.61176 4.66667 2.63529 7.08333 2.63529C8.45833 2.63529 9.375 3.21176 9.91667 3.70588L11.8333 1.89412C10.5833 0.7 9 0 7.08333 0C3.16667 0 0 3.12941 0 7C0 10.8706 3.16667 14 7.08333 14C11.9583 14 14.4583 10.0059 13.7917 6.01177Z" fill="white"/>
</svg>
