<svg width="16" height="16" viewBox="0 0 16 16" fill="none" xmlns="http://www.w3.org/2000/svg">
<path d="M12.8282 0H3.10132C1.40969 0 0 1.40969 0 3.10132V12.8987C0 14.5903 1.40969 16 3.10132 16H12.8987C14.5903 16 16 14.5903 16 12.8987V6.34361V3.10132C15.9295 1.40969 14.5198 0 12.8282 0ZM13.7445 1.8326H14.0969V4.51101H11.4185V1.8326H13.7445ZM5.70925 6.34361C6.20264 5.63877 7.04846 5.14537 7.96476 5.14537C8.88106 5.14537 9.72687 5.63877 10.2203 6.34361C10.5727 6.837 10.7841 7.40088 10.7841 7.96476C10.7841 9.51542 9.51542 10.7841 7.96476 10.7841C6.4141 10.7841 5.14537 9.51542 5.14537 7.96476C5.14537 7.3304 5.35683 6.76652 5.70925 6.34361ZM14.3789 12.8282C14.3789 13.674 13.674 14.3789 12.8282 14.3789H3.10132C2.25551 14.3789 1.55066 13.674 1.55066 12.8282V6.34361H3.94714C3.73568 6.837 3.59471 7.40088 3.59471 7.96476C3.59471 10.3612 5.56828 12.3348 7.96476 12.3348C10.3612 12.3348 12.3348 10.3612 12.3348 7.96476C12.3348 7.40088 12.1938 6.837 11.9824 6.34361H14.3789V12.8282Z" fill="#282829"/>
</svg>
