<svg width="24" height="24" viewBox="0 0 24 24" fill="none" xmlns="http://www.w3.org/2000/svg">
<path d="M19.2423 0H4.65198C2.11454 0 0 2.11454 0 4.65198V19.348C0 21.8855 2.11454 24 4.65198 24H19.348C21.8855 24 24 21.8855 24 19.348V9.51542V4.65198C23.8943 2.11454 21.7797 0 19.2423 0ZM20.6167 2.7489H21.1454V6.76652H17.1278V2.7489H20.6167ZM8.56388 9.51542C9.30397 8.45815 10.5727 7.71806 11.9471 7.71806C13.3216 7.71806 14.5903 8.45815 15.3304 9.51542C15.859 10.2555 16.1762 11.1013 16.1762 11.9471C16.1762 14.2731 14.2731 16.1762 11.9471 16.1762C9.62115 16.1762 7.71806 14.2731 7.71806 11.9471C7.71806 10.9956 8.03524 10.1498 8.56388 9.51542ZM21.5683 19.2423C21.5683 20.511 20.511 21.5683 19.2423 21.5683H4.65198C3.38326 21.5683 2.32599 20.511 2.32599 19.2423V9.51542H5.9207C5.60352 10.2555 5.39207 11.1013 5.39207 11.9471C5.39207 15.5419 8.35242 18.5022 11.9471 18.5022C15.5419 18.5022 18.5022 15.5419 18.5022 11.9471C18.5022 11.1013 18.2907 10.2555 17.9736 9.51542H21.5683V19.2423Z" fill="#282829"/>
</svg>
