<svg width="160" height="100" viewBox="0 0 160 100" fill="none" xmlns="http://www.w3.org/2000/svg">
<path d="M134.915 96.228C134.809 96.0517 134.668 95.9459 134.527 95.8401C134.351 95.7343 134.174 95.6991 133.963 95.6991C133.716 95.6991 133.469 95.7696 133.328 95.9106C133.151 96.0517 133.081 96.228 133.081 96.4748C133.081 96.5806 133.116 96.6864 133.151 96.7569C133.222 96.8274 133.292 96.8979 133.363 96.9685C133.433 97.039 133.539 97.0742 133.645 97.1095C133.751 97.1448 133.857 97.18 133.927 97.2153C135.021 97.4974 135.55 97.9558 135.55 98.661C135.55 98.8725 135.515 99.0488 135.409 99.2251C135.339 99.4015 135.197 99.5425 135.056 99.6483C134.915 99.7541 134.739 99.8598 134.527 99.8951C134.351 99.9656 134.139 100.001 133.927 100.001C133.574 100.001 133.257 99.9304 132.975 99.7541C132.692 99.5778 132.481 99.3662 132.375 99.0488C132.34 98.9431 132.375 98.8725 132.481 98.8373L132.657 98.7668C132.763 98.7315 132.834 98.7668 132.869 98.8725L132.904 98.9078C132.939 99.0136 133.01 99.0841 133.116 99.1546C133.186 99.2252 133.292 99.2957 133.398 99.3309C133.504 99.3662 133.61 99.4367 133.68 99.4367C133.786 99.472 133.857 99.472 133.963 99.472C134.068 99.472 134.21 99.472 134.315 99.4367C134.457 99.4015 134.562 99.3662 134.668 99.2957C134.774 99.2252 134.88 99.1546 134.95 99.0488C135.021 98.9431 135.056 98.8373 135.056 98.6962C135.056 98.5552 135.021 98.4494 134.95 98.3436C134.88 98.2378 134.774 98.1673 134.668 98.0968C134.562 98.0263 134.421 97.9558 134.315 97.9205C134.174 97.8852 134.033 97.85 133.927 97.8147C133.751 97.7795 133.574 97.7089 133.433 97.6384C133.257 97.5679 133.116 97.4621 133.01 97.3563C132.904 97.2505 132.798 97.1448 132.728 97.0037C132.657 96.8627 132.622 96.7216 132.622 96.5453C132.622 96.1574 132.763 95.8754 133.01 95.6285C133.257 95.3817 133.61 95.2759 134.033 95.2759C134.351 95.2759 134.633 95.3465 134.88 95.4522C135.127 95.5933 135.339 95.8048 135.48 96.0869C135.515 96.1222 135.515 96.1574 135.515 96.228C135.515 96.2632 135.48 96.2985 135.444 96.3338L135.268 96.4395C135.197 96.5101 135.127 96.4748 135.056 96.4395L135.021 96.4043C134.915 96.2632 134.915 96.228 134.915 96.228Z" fill="#282829"/>
<path d="M139.996 99.3653H140.172C140.207 99.3653 140.278 99.3653 140.313 99.4006C140.348 99.4006 140.384 99.4711 140.384 99.5063V99.7532C140.384 99.8237 140.348 99.859 140.313 99.859C140.278 99.859 140.207 99.8942 140.172 99.8942H140.031C139.89 99.8942 139.713 99.859 139.607 99.859C139.466 99.8237 139.361 99.7532 139.255 99.6826C139.149 99.5769 139.078 99.4711 139.008 99.2948C138.937 99.1185 138.937 98.9422 138.937 98.6601V95.8039H138.302C138.232 95.8039 138.196 95.8039 138.161 95.7687C138.126 95.7334 138.126 95.6982 138.126 95.6276V95.4513C138.126 95.3808 138.126 95.3455 138.161 95.3103C138.196 95.275 138.232 95.275 138.302 95.275H138.937V93.8998C138.937 93.7941 139.008 93.7588 139.078 93.7588L139.325 93.7235C139.396 93.7235 139.431 93.7235 139.431 93.7588C139.466 93.7941 139.466 93.8646 139.466 93.8998V95.275H140.278C140.419 95.275 140.454 95.3456 140.454 95.4513V95.5924C140.454 95.6982 140.384 95.7687 140.278 95.7687H139.466V98.519C139.466 98.8364 139.502 99.0832 139.607 99.189C139.678 99.2948 139.819 99.33 139.996 99.3653Z" fill="#282829"/>
<path d="M143.065 97.5678C143.065 97.2505 143.136 96.9331 143.241 96.651C143.347 96.369 143.524 96.1221 143.735 95.8753C143.947 95.6637 144.194 95.4874 144.476 95.3464C144.759 95.2053 145.076 95.1701 145.394 95.1701C145.711 95.1701 146.029 95.2406 146.311 95.3464C146.593 95.4874 146.84 95.6285 147.052 95.8753C147.264 96.0869 147.405 96.3337 147.546 96.651C147.652 96.9331 147.722 97.2505 147.722 97.5678C147.722 97.8852 147.652 98.2025 147.546 98.4846C147.44 98.7667 147.264 99.0135 147.052 99.2603C146.84 99.4719 146.593 99.6482 146.311 99.7893C146.029 99.9303 145.711 99.9656 145.394 99.9656C145.076 99.9656 144.759 99.895 144.476 99.7893C144.194 99.6482 143.947 99.5072 143.735 99.2603C143.524 99.0488 143.383 98.8019 143.241 98.4846C143.136 98.2025 143.065 97.8852 143.065 97.5678ZM143.594 97.5678C143.594 97.8147 143.63 98.0615 143.735 98.3083C143.841 98.5199 143.947 98.7314 144.123 98.9077C144.265 99.084 144.476 99.2251 144.688 99.2956C144.9 99.4014 145.147 99.4366 145.394 99.4366C145.641 99.4366 145.888 99.4014 146.099 99.2956C146.311 99.1898 146.487 99.0488 146.664 98.9077C146.805 98.7314 146.946 98.5551 147.052 98.3083C147.158 98.0967 147.193 97.8499 147.193 97.5678C147.193 97.321 147.158 97.0742 147.052 96.8273C146.946 96.6158 146.84 96.4042 146.664 96.2279C146.487 96.0516 146.311 95.9106 146.099 95.84C145.888 95.7342 145.641 95.699 145.394 95.699C145.147 95.699 144.9 95.7342 144.688 95.84C144.476 95.9458 144.265 96.0869 144.123 96.2279C143.982 96.4042 143.841 96.5805 143.735 96.8273C143.665 97.0742 143.594 97.321 143.594 97.5678Z" fill="#282829"/>
<path d="M150.721 99.6835V95.4875C150.721 95.3464 150.756 95.2759 150.862 95.2759H151.109C151.18 95.2759 151.215 95.2759 151.215 95.3111C151.215 95.3464 151.25 95.3817 151.25 95.4522V95.9811C151.321 95.7343 151.497 95.558 151.709 95.4169C151.921 95.2759 152.168 95.2054 152.485 95.2054C152.626 95.2054 152.767 95.2406 152.944 95.2759C153.12 95.3112 153.261 95.3817 153.367 95.4522C153.402 95.4875 153.438 95.5227 153.473 95.558C153.508 95.5932 153.508 95.6638 153.473 95.699L153.332 95.9106C153.297 95.9458 153.261 95.9811 153.226 95.9458C153.191 95.9458 153.155 95.9458 153.12 95.9106C153.05 95.8401 152.944 95.8048 152.803 95.7695C152.697 95.7343 152.556 95.699 152.45 95.699C152.273 95.699 152.132 95.7343 151.991 95.8048C151.85 95.8753 151.709 95.9811 151.603 96.1222C151.497 96.2632 151.427 96.4042 151.356 96.5805C151.286 96.7568 151.25 96.9332 151.25 97.1095V99.613C151.25 99.7188 151.18 99.7893 151.074 99.7893H150.862C150.792 99.8245 150.721 99.7893 150.721 99.6835Z" fill="#282829"/>
<path d="M157.883 99.9303C157.566 99.9303 157.283 99.8598 157.001 99.754C156.719 99.6129 156.472 99.4719 156.296 99.2251C156.084 99.0135 155.943 98.7667 155.802 98.4493C155.696 98.1672 155.625 97.8499 155.625 97.5325C155.625 97.2152 155.696 96.8978 155.802 96.6158C155.907 96.3337 156.084 96.0868 156.26 95.84C156.472 95.6284 156.684 95.4521 156.966 95.3111C157.248 95.17 157.53 95.1348 157.813 95.1348C158.095 95.1348 158.377 95.2053 158.624 95.3111C158.871 95.4169 159.118 95.5932 159.294 95.8048C159.471 96.0163 159.647 96.2631 159.753 96.5452C159.859 96.8273 159.929 97.1094 159.929 97.4267C159.929 97.5325 159.894 97.6031 159.824 97.6383C159.753 97.6736 159.683 97.7088 159.577 97.7088H156.154C156.154 97.9204 156.225 98.1672 156.296 98.3435C156.401 98.5551 156.507 98.7314 156.648 98.8724C156.789 99.0135 156.966 99.1545 157.178 99.2251C157.389 99.2956 157.601 99.3661 157.813 99.3661H157.848C158.095 99.3661 158.342 99.2956 158.589 99.1898C158.836 99.084 159.012 98.943 159.189 98.7667C159.224 98.7314 159.259 98.6961 159.33 98.6961C159.365 98.6961 159.4 98.6961 159.436 98.7314L159.541 98.8724C159.577 98.9077 159.612 98.9782 159.612 99.0135C159.612 99.0488 159.577 99.1193 159.506 99.1545C159.294 99.3661 159.047 99.5072 158.765 99.6482C158.518 99.895 158.236 99.9303 157.883 99.9303ZM157.848 95.699C157.636 95.699 157.46 95.7342 157.283 95.8048C157.107 95.8753 156.931 95.9811 156.789 96.1221C156.648 96.2631 156.542 96.4042 156.437 96.6158C156.331 96.7921 156.26 97.0036 156.225 97.2152H159.471C159.436 97.0036 159.4 96.7921 159.294 96.6158C159.189 96.4394 159.083 96.2631 158.942 96.1221C158.8 95.9811 158.624 95.8753 158.448 95.8048C158.236 95.7342 158.024 95.699 157.848 95.699Z" fill="#282829"/>
<path d="M0 72.2144H7.3032V72.4965H4.79824L4.76295 79.7602H11.6428V72.5317L9.10254 72.4965V72.2144C9.914 72.2144 11.043 72.2144 12.4895 72.2144C13.9361 72.2144 15.2415 72.2144 16.4763 72.1791V72.4965H13.7596V89.5628H16.5116V89.8449H9.06726L9.03197 89.5628H11.6075V80.1128H4.76295V89.5628H7.26792V89.8801H0.0705623V89.5628H2.6108V72.4612H0.0352811L0 72.2144Z" fill="#282829"/>
<path d="M30.0596 72.5317C30.236 73.0959 30.9416 75.2116 32.1059 78.8434C33.2701 82.5106 34.0463 84.9083 34.4344 86.0367C34.7872 87.165 35.1753 88.3639 35.5634 89.5628H37.7508L37.6803 89.8448L30.5535 89.9154L30.5888 89.598H33.0937L31.5061 84.2031H26.2845L25.0144 88.1171C24.9791 88.2934 24.9791 88.3991 24.9791 88.4697C24.9791 89.2101 25.9317 89.598 27.8016 89.598V89.8801H21.8743V89.598C23.2503 89.598 24.097 89.0691 24.4499 88.0113C24.8027 86.8829 25.3319 85.1199 26.0728 82.7221C26.8137 80.2891 27.5193 77.9972 28.1897 75.811C28.86 73.6248 29.2128 72.4259 29.2481 72.2144C29.2834 72.1439 29.3187 72.1439 29.4245 72.1439C29.5303 72.1439 29.6362 72.1791 29.7773 72.2496C29.9184 72.3554 29.989 72.4259 30.0596 72.5317ZM31.365 83.8152L28.8247 75.67L26.4256 83.8152H31.365Z" fill="#282829"/>
<path d="M43.678 72.2144C43.9956 72.2144 44.3837 72.2144 44.9129 72.2144C45.4421 72.2144 45.9713 72.1791 46.5005 72.1791C47.0298 72.1791 47.4884 72.1439 47.9471 72.1439C48.3704 72.1439 48.7585 72.1439 49.0055 72.1439C50.1698 72.1439 51.1929 72.1791 52.075 72.2849C52.957 72.3907 53.7685 72.567 54.4388 72.8491C55.1444 73.1312 55.7089 73.5543 56.1323 74.0832C56.5557 74.6121 56.8379 75.3173 56.9438 76.1283C56.979 76.4457 56.979 76.6573 56.979 76.7983C56.979 78.103 56.4145 79.3018 55.2855 80.3597C54.4741 81.1001 53.1687 81.488 51.2988 81.488C50.9812 81.488 50.0286 81.4175 48.4057 81.3117V88.787C48.4057 89.3159 49.323 89.5628 51.1576 89.5628V89.8448L43.7486 89.8801V89.5628C44.172 89.5628 44.6659 89.4922 45.301 89.3865C45.936 89.2807 46.2183 89.0338 46.2183 88.646L46.183 72.4612H43.6428V72.2144H43.678ZM54.3682 74.1185C54.2271 73.6248 53.8743 73.2722 53.3451 73.0254C52.8159 72.7786 52.2161 72.6375 51.581 72.567C50.946 72.4965 50.2051 72.4612 49.4289 72.4612H48.441V80.9238C49.9228 81.0649 50.8048 81.1354 51.1576 81.1354C52.6747 81.1354 53.6979 80.7475 54.2271 80.007C54.6858 79.3723 54.9327 78.4203 54.9327 77.2214C54.8974 76.1989 54.721 75.141 54.3682 74.1185Z" fill="#282829"/>
<path d="M63.0474 72.2144C63.365 72.2144 63.753 72.2144 64.2823 72.2144C64.8115 72.2144 65.3407 72.1791 65.8699 72.1791C66.3991 72.1791 66.8578 72.1439 67.3164 72.1439C67.7398 72.1439 68.0926 72.1439 68.3749 72.1439C69.5392 72.1439 70.5623 72.1791 71.4443 72.2849C72.3264 72.3907 73.1378 72.567 73.8082 72.8491C74.5138 73.1312 75.0783 73.5543 75.5017 74.0832C75.925 74.6121 76.2073 75.3173 76.3131 76.1283C76.3484 76.4457 76.3484 76.6573 76.3484 76.7983C76.3484 78.103 75.7839 79.3018 74.6549 80.3597C73.8435 81.1001 72.5381 81.488 70.6682 81.488C70.3506 81.488 69.398 81.4175 67.7751 81.3117V88.787C67.7751 89.3159 68.6924 89.5628 70.527 89.5628V89.8448L63.118 89.8801V89.5628C63.5414 89.5628 64.0353 89.4922 64.6704 89.3865C65.3054 89.2807 65.5877 89.0338 65.5877 88.646L65.5524 72.4612H63.0121V72.2144H63.0474ZM73.7376 74.1185C73.5965 73.6248 73.2437 73.2722 72.7145 73.0254C72.1852 72.7786 71.5855 72.6375 70.9504 72.567C70.3153 72.4965 69.5744 72.4612 68.7983 72.4612H67.8104V80.9238C69.2922 81.0649 70.1742 81.1354 70.527 81.1354C72.0441 81.1354 73.0673 80.7475 73.5965 80.007C74.0551 79.3723 74.3021 78.4203 74.3021 77.2214C74.2668 76.1989 74.0904 75.141 73.7376 74.1185Z" fill="#282829"/>
<path d="M80.8997 72.2497H88.4145V72.5318H85.5921L89.72 80.7123L92.4366 74.4359C92.5777 74.1538 92.613 73.907 92.613 73.6954C92.613 72.9197 91.7663 72.5318 90.0728 72.5318V72.2497H96.1764V72.5318C94.624 72.5318 93.4597 73.3075 92.7541 74.8943L89.8611 81.4528V89.6686H92.613V90.0212L85.1334 89.9859V89.7039H87.6736V81.1002L83.2635 72.5318H80.8644V72.2497H80.8997Z" fill="#282829"/>
<path d="M109.654 72.2144H120.379L112.053 89.6333C112.3 89.6333 112.653 89.6333 113.147 89.6333C113.641 89.6333 113.993 89.6333 114.24 89.6333C115.44 89.6333 116.463 89.4923 117.31 89.2102C118.121 88.9281 118.756 88.3992 119.215 87.5882C119.497 87.0593 119.744 86.4951 119.921 85.9309C120.097 85.3315 120.273 84.6263 120.415 83.7447C120.591 82.8985 120.697 82.299 120.767 81.9817L121.014 82.017L120.944 89.9154H109.724C109.971 89.4217 110.465 88.3639 111.277 86.6714C112.088 84.9789 112.582 83.9563 112.759 83.5684C112.935 83.1806 113.676 81.6291 114.981 78.914C116.287 76.1636 117.31 74.0832 117.98 72.6023C117.733 72.6023 117.31 72.6023 116.781 72.567C116.251 72.567 115.828 72.5318 115.546 72.5318C113.958 72.5318 112.794 72.8491 112.053 73.5191C111.594 73.9775 111.206 74.5064 110.924 75.0705C110.642 75.6347 110.43 76.2342 110.289 76.8689C110.148 77.4683 110.007 78.2088 109.865 79.055H109.654V72.2144Z" fill="#282829"/>
<path d="M135.197 72.3908C136.044 72.3908 136.82 72.6377 137.526 73.1666C138.232 73.6602 138.831 74.2949 139.325 75.0707C139.854 75.8817 140.278 76.869 140.595 77.9973C140.878 79.1257 141.019 80.3245 141.019 81.5939C141.019 83.8506 140.595 85.6842 139.749 87.0946C139.361 87.7646 138.725 88.4346 137.879 89.0693C137.032 89.704 136.079 90.0213 134.986 90.0213C133.892 90.0213 133.08 89.845 132.516 89.4924C131.951 89.1398 131.352 88.4698 130.681 87.553C130.258 86.9183 129.94 86.2836 129.658 85.5784C129.376 84.8732 129.164 84.1327 129.023 83.357C128.882 82.5812 128.811 81.8055 128.811 81.0298C128.811 78.7731 129.341 76.869 130.434 75.247C131.563 73.3429 133.151 72.4261 135.197 72.3908ZM135.197 72.7434C134.315 72.7434 133.645 72.955 133.151 73.3429C132.657 73.7308 132.34 74.1186 132.198 74.5065C131.916 75.3175 131.705 76.3753 131.528 77.7505C131.352 79.1257 131.281 80.5008 131.281 81.876C131.281 83.9917 131.458 85.6842 131.775 86.9889C131.951 87.553 132.128 87.9762 132.304 88.223C132.516 88.4698 132.763 88.7519 133.116 89.034C133.645 89.4219 134.209 89.6334 134.845 89.6334C135.48 89.6334 136.115 89.4219 136.75 88.9987C137.067 88.7519 137.385 88.4346 137.667 88.0114C137.949 87.5883 138.09 87.1652 138.126 86.742C138.232 85.4374 138.337 84.2738 138.373 83.357C138.443 82.4049 138.478 81.4882 138.478 80.5714C138.478 78.1736 138.232 76.1285 137.773 74.5065C137.667 74.0834 137.349 73.6955 136.856 73.3429C136.326 72.9198 135.797 72.7434 135.197 72.7434Z" fill="#282829"/>
<path d="M154.179 72.3908C155.025 72.3908 155.802 72.6377 156.507 73.1666C157.213 73.6602 157.813 74.2949 158.307 75.0707C158.836 75.8817 159.259 76.869 159.577 77.9973C159.859 79.1257 160 80.3245 160 81.5939C160 83.8506 159.577 85.6842 158.73 87.0946C158.342 87.7646 157.707 88.4346 156.86 89.0693C156.013 89.704 155.061 90.0213 153.967 90.0213C152.873 90.0213 152.062 89.845 151.462 89.4924C150.897 89.1398 150.298 88.4698 149.627 87.553C149.204 86.9183 148.886 86.2836 148.604 85.5784C148.322 84.8732 148.11 84.1327 147.969 83.357C147.828 82.5812 147.757 81.8055 147.757 81.0298C147.757 78.7731 148.287 76.869 149.38 75.247C150.545 73.3429 152.168 72.4261 154.179 72.3908ZM154.214 72.7434C153.332 72.7434 152.662 72.955 152.168 73.3429C151.674 73.7308 151.356 74.1186 151.215 74.5065C150.933 75.3175 150.721 76.3753 150.545 77.7505C150.368 79.1257 150.298 80.5008 150.298 81.876C150.298 83.9917 150.474 85.6842 150.792 86.9889C150.968 87.553 151.144 87.9762 151.321 88.223C151.533 88.4698 151.815 88.7519 152.132 89.034C152.662 89.4219 153.226 89.6334 153.861 89.6334C154.496 89.6334 155.131 89.4219 155.766 88.9987C156.084 88.7519 156.401 88.4346 156.684 88.0114C156.966 87.5883 157.107 87.1652 157.142 86.742C157.248 85.4374 157.319 84.2738 157.389 83.357C157.46 82.4049 157.495 81.4882 157.495 80.5714C157.495 78.1736 157.248 76.1285 156.789 74.5065C156.684 74.0834 156.366 73.6955 155.872 73.3429C155.343 72.9198 154.814 72.7434 154.214 72.7434Z" fill="#282829"/>
<path d="M110 30C110 46.5882 96.5529 60 80 60C63.4118 60 50 46.5529 50 30C50 13.4471 63.4471 0 80 0C96.5529 0 110 13.4471 110 30Z" fill="#CDD8A7"/>
<path d="M95.847 34.3058C93.5529 32.0823 89.7411 32.0823 85.3999 34.2706C77.7058 38.1882 70.647 39 66.4823 36.4588C64.4705 35.2235 63.3411 33.247 63.3411 30.847C63.3411 27.5647 65.3176 25.6235 66.9411 24.5647C70.2235 22.4823 75.1999 22.1294 78.5176 23.6823C78.6588 23.7529 78.8352 23.7529 78.9764 23.6823C79.1176 23.6117 79.2235 23.5058 79.2941 23.3294C80.1411 20.4353 81.6588 17.9294 82.3999 16.8C82.8941 17.5058 83.6705 18.8117 84.4117 20.4C84.5176 20.6117 84.6941 20.7176 84.9058 20.7176H86.2117C86.4235 20.7176 86.6352 20.5764 86.7058 20.4C87.447 18.8117 88.2588 17.5411 88.7176 16.8C89.7411 18.3176 92.1764 22.3411 92.4235 26.5058H90.5529V27.6H95.3176V26.5058H93.5176C93.2352 20.8941 89.3176 15.7058 89.1411 15.4941C89.0352 15.3529 88.8941 15.2823 88.7176 15.2823C88.5411 15.2823 88.3999 15.3529 88.2941 15.4941C88.2235 15.5647 87.0235 17.1882 85.8588 19.5882H85.2235C84.0588 17.1882 82.8588 15.5647 82.7882 15.4941C82.5764 15.2117 82.1176 15.2117 81.9058 15.4941C81.7999 15.6353 79.5764 18.5647 78.3411 22.3764C74.6705 20.9294 69.6941 21.3882 66.2705 23.5764C64.3999 24.7764 62.1411 26.9647 62.1411 30.7764C62.1411 33.5294 63.447 35.8588 65.8117 37.3058C70.2941 40.0588 77.7764 39.247 85.7882 35.1529C89.6705 33.1764 93.0235 33.1058 94.9647 34.9764C96.4823 36.4235 96.9058 38.8941 95.9882 40.8353C95.1058 42.7058 93.2705 43.6235 90.8705 43.3764C89.247 43.2 88.1882 42.4588 87.7999 41.1882C87.4117 39.9529 87.8352 38.5058 88.7882 37.6941C89.5999 37.0235 90.6588 36.9882 91.7529 37.5529C92.3529 37.8706 92.5294 38.5764 92.4941 39.1058C92.4588 39.6706 92.247 40.0588 92.0352 40.1294L92.4588 41.1529C93.0941 40.8706 93.5176 40.0941 93.5529 39.1411C93.5882 38.2588 93.2705 37.0941 92.2117 36.5647C90.6941 35.7882 89.1764 35.8588 88.047 36.8117C86.7764 37.8706 86.2117 39.8117 86.7058 41.4706C87.1999 43.1294 88.6823 44.2235 90.7294 44.4C91.0117 44.4353 91.2941 44.4353 91.5764 44.4353C94.047 44.4353 95.9882 43.2705 96.9411 41.1882C98.2117 39.0353 97.7176 36.1058 95.847 34.3058Z" fill="white"/>
<path d="M95.3531 29.6824H90.5884V30.7771H95.3531V29.6824Z" fill="white"/>
<path d="M79.964 58.0235C64.5051 58.0235 51.9404 45.4588 51.9404 30C51.9404 14.5412 64.5404 2.01178 79.964 2.01178C95.3875 2.01178 107.987 14.5765 107.987 30.0353C107.987 45.4941 95.4228 58.0235 79.964 58.0235ZM79.964 3.1059C65.1404 3.1059 53.0345 15.1765 53.0345 30.0353C53.0345 44.8941 65.1051 56.9647 79.964 56.9647C94.8228 56.9647 106.893 44.8588 106.893 30C106.893 15.1412 94.8228 3.1059 79.964 3.1059Z" fill="white"/>
</svg>
