<svg width="44" height="22" viewBox="0 0 44 22" fill="none" xmlns="http://www.w3.org/2000/svg">
<path d="M9.22777 12.4129C9.22777 14.3695 7.66333 16.0082 4.54666 16.0082C1.50333 16.0082 0 14.6263 0 13.0855C0 12.3884 0.391111 12.1438 0.782221 12.1438C1.24667 12.1438 1.45444 12.3762 1.45444 12.9265C1.45444 14.981 2.56666 15.6291 4.63222 15.6291C7.23555 15.6291 8.06666 14.3328 8.06666 13.0732C8.06666 11.8503 7.46777 11.3856 4.99888 10.5174L3.17777 9.89369C1.54 9.29446 0.549999 8.37728 0.549999 6.57961C0.549999 4.57404 2.18778 3.04541 4.99888 3.04541C7.55333 3.04541 9.03221 4.1338 9.03221 5.88255C9.03221 6.55515 8.68999 6.68967 8.29888 6.68967C7.83444 6.68967 7.60221 6.45732 7.60221 5.90701C7.60221 4.06042 6.79555 3.41228 4.90111 3.41228C2.84777 3.41228 1.69889 4.35392 1.69889 5.90701C1.69889 7.12992 2.43222 7.59462 4.46111 8.32837L6.51444 9.06211C8.21333 9.62465 9.22777 10.3828 9.22777 12.4129Z" fill="white"/>
<path d="M12.6619 3.80324H10.6575C10.5842 3.80324 10.5475 3.77878 10.5475 3.64426C10.5475 3.50974 10.5964 3.48528 10.6819 3.48528C11.9286 3.41191 12.6008 3.14287 12.9186 2.91052C13.4441 2.54364 13.7253 1.79767 14.0064 0.207894C14.0308 0.0733744 14.1164 0 14.263 0C14.3975 0 14.4708 0.0244581 14.4953 0.0733744C14.5197 0.122291 14.5197 0.232352 14.5197 0.281268V3.37522H17.1964C17.3064 3.37522 17.3553 3.42414 17.3553 3.58312C17.3553 3.74209 17.3064 3.79101 17.1964 3.79101H14.5197V13.024C14.5197 13.5987 14.5686 14.3569 14.6541 14.7116C14.813 15.3597 15.3264 15.5431 15.8519 15.5431C16.2675 15.5431 16.7075 15.4086 17.0497 15.1763C17.3308 14.9684 17.5141 14.7849 17.7219 14.4792C17.7708 14.4058 17.8319 14.3447 17.9053 14.3447C17.9786 14.3447 18.0886 14.3936 18.0886 14.5037C18.0886 14.577 17.9541 14.7849 17.7708 14.9928C17.1719 15.641 16.3897 15.9589 15.3264 15.9589C13.9941 15.9589 12.9308 15.4086 12.723 13.9044C12.6497 13.3786 12.6497 12.6815 12.6497 12.1312V3.80324H12.6619Z" fill="white"/>
<path d="M23.3687 16.0078C20.5576 16.0078 19.2865 14.528 19.2865 12.5469C19.2865 11.2751 19.8609 10.5169 20.8509 10.0522C21.7554 9.63641 23.4543 9.3796 26.9132 9.3796V7.17837C26.9132 5.42961 26.7787 4.78147 26.5954 4.4146C26.1798 3.58302 25.3976 3.39959 24.3832 3.39959C23.5032 3.39959 22.6965 3.63194 22.2565 3.97435C21.5843 4.5002 21.4987 5.14834 21.4987 6.42017C21.4987 6.99493 21.1565 7.20283 20.7165 7.20283C20.3009 7.20283 19.9832 7.01939 19.9832 6.44462C19.9832 4.94045 21.3643 3.03271 24.6643 3.03271C26.6198 3.03271 27.7809 3.76646 28.3309 4.80593C28.5876 5.33178 28.7465 5.97992 28.7465 7.04385C28.7465 8.34013 28.6976 13.3663 28.6976 13.831C28.6976 15.0539 28.9543 15.4452 29.6876 15.4452C30.1276 15.4452 30.3843 15.3107 30.6532 15.0294C30.7265 14.9194 30.812 14.846 30.9098 14.846C30.9832 14.846 31.0932 14.9194 31.0932 15.0294C31.0932 15.1028 31.0198 15.2129 30.8854 15.3107C30.4943 15.6287 29.8954 15.8855 29.1987 15.8855C27.4265 15.8855 26.962 15.0539 26.8887 13.7576C26.3265 15.2006 24.9454 16.0078 23.3687 16.0078ZM26.192 9.6731C24.2976 9.6731 22.9165 9.85653 22.2443 10.2234C21.5476 10.5903 21.1321 11.2629 21.1321 12.5592C21.1321 14.4791 22.0121 15.5553 23.5765 15.5553C25.3243 15.5553 26.1798 14.6503 26.6443 13.4274C26.8276 12.9383 26.9009 11.8376 26.9009 11.055V9.70978C26.7176 9.6731 26.4609 9.6731 26.192 9.6731Z" fill="white"/>
<path d="M36.6057 15.6652C36.3979 15.6652 36.239 15.6407 36.1413 15.3839L32.1568 5.46617C31.7168 4.37778 31.5579 4.08429 31.3502 3.92531C31.1179 3.76633 30.8002 3.69296 30.2624 3.69296C30.189 3.69296 30.1279 3.69296 30.1279 3.53398C30.1279 3.39946 30.1768 3.375 30.2868 3.375C30.7024 3.375 31.9001 3.39946 32.8046 3.39946C33.9168 3.39946 34.9313 3.375 35.6646 3.375C35.7746 3.375 35.799 3.39946 35.799 3.53398C35.799 3.6685 35.7746 3.69296 35.6401 3.69296C35.2246 3.69296 34.809 3.71741 34.5279 3.74187C33.9535 3.79079 33.8313 3.97422 33.8313 4.29218C33.8313 4.50007 33.9046 4.73243 34.1979 5.49063C36.4346 11.1405 36.9846 12.5468 37.6324 14.3078C38.2313 12.6691 38.6224 11.703 40.7735 5.90642C40.9324 5.46617 41.0913 4.94032 41.0913 4.54899C41.0913 4.26772 40.9324 4.05983 40.5657 3.90085C40.309 3.79079 39.869 3.71741 39.4535 3.69296C39.319 3.69296 39.2946 3.64404 39.2946 3.53398C39.2946 3.39946 39.3435 3.375 39.4535 3.375C39.8935 3.375 40.9568 3.39946 41.5557 3.39946C42.2035 3.39946 42.8024 3.375 43.4257 3.375C43.5601 3.375 43.5846 3.39946 43.5846 3.53398C43.5846 3.69296 43.5357 3.69296 43.4501 3.69296C42.9001 3.76633 42.6435 3.87639 42.3379 4.1332C42.0813 4.3411 41.7635 4.8058 41.4335 5.74744C40.1379 9.13489 39.429 11.0059 37.5835 15.6041C36.1046 19.3217 35.6279 20.3856 34.4057 21.4006C33.8557 21.8409 33.2568 21.9999 32.7679 21.9999C32.0957 21.9999 31.6557 21.7186 31.6557 21.1438C31.6557 20.6791 31.8879 20.3612 32.4379 20.3612C32.8779 20.3612 33.0857 20.6424 33.5501 20.6424C34.6135 20.6424 35.4201 19.7864 36.9846 15.6407H36.6057V15.6652Z" fill="white"/>
<path d="M43.1441 15.7878C42.6675 15.7878 42.2886 15.4331 42.2886 14.9562C42.2886 14.4548 42.6675 14.0757 43.1441 14.0757C43.6941 14.0757 43.9997 14.4548 43.9997 14.9562C43.9997 15.4453 43.6941 15.7878 43.1441 15.7878Z" fill="white"/>
</svg>
