<svg width="60" height="60" viewBox="0 0 60 60" fill="none" xmlns="http://www.w3.org/2000/svg">
<path d="M60 30C60 46.5882 46.5529 60 30 60C13.4118 60 0 46.5529 0 30C0 13.4471 13.4471 0 30 0C46.5529 0 60 13.4471 60 30Z" fill="#CDD8A7"/>
<path d="M45.847 34.3058C43.5529 32.0823 39.7411 32.0823 35.3999 34.2706C27.7058 38.1882 20.647 39 16.4823 36.4588C14.4705 35.2235 13.3411 33.247 13.3411 30.847C13.3411 27.5647 15.3176 25.6235 16.9411 24.5647C20.2235 22.4823 25.1999 22.1294 28.5176 23.6823C28.6588 23.7529 28.8352 23.7529 28.9764 23.6823C29.1176 23.6117 29.2235 23.5058 29.2941 23.3294C30.1411 20.4353 31.6588 17.9294 32.3999 16.8C32.8941 17.5058 33.6705 18.8117 34.4117 20.4C34.5176 20.6117 34.6941 20.7176 34.9058 20.7176H36.2117C36.4235 20.7176 36.6352 20.5764 36.7058 20.4C37.447 18.8117 38.2588 17.5411 38.7176 16.8C39.7411 18.3176 42.1764 22.3411 42.4235 26.5058H40.5529V27.6H45.3176V26.5058H43.5176C43.2352 20.8941 39.3176 15.7058 39.1411 15.4941C39.0352 15.3529 38.8941 15.2823 38.7176 15.2823C38.5411 15.2823 38.3999 15.3529 38.2941 15.4941C38.2235 15.5647 37.0235 17.1882 35.8588 19.5882H35.2235C34.0588 17.1882 32.8588 15.5647 32.7882 15.4941C32.5764 15.2117 32.1176 15.2117 31.9058 15.4941C31.7999 15.6353 29.5764 18.5647 28.3411 22.3764C24.6705 20.9294 19.6941 21.3882 16.2705 23.5764C14.3999 24.7764 12.1411 26.9647 12.1411 30.7764C12.1411 33.5294 13.447 35.8588 15.8117 37.3058C20.2941 40.0588 27.7764 39.247 35.7882 35.1529C39.6705 33.1764 43.0235 33.1058 44.9647 34.9764C46.4823 36.4235 46.9058 38.8941 45.9882 40.8353C45.1058 42.7058 43.2705 43.6235 40.8705 43.3764C39.247 43.2 38.1882 42.4588 37.7999 41.1882C37.4117 39.9529 37.8352 38.5058 38.7882 37.6941C39.5999 37.0235 40.6588 36.9882 41.7529 37.5529C42.3529 37.8706 42.5294 38.5764 42.4941 39.1058C42.4588 39.6706 42.247 40.0588 42.0352 40.1294L42.4588 41.1529C43.0941 40.8706 43.5176 40.0941 43.5529 39.1411C43.5882 38.2588 43.2705 37.0941 42.2117 36.5647C40.6941 35.7882 39.1764 35.8588 38.047 36.8117C36.7764 37.8706 36.2117 39.8117 36.7058 41.4706C37.1999 43.1294 38.6823 44.2235 40.7294 44.4C41.0117 44.4353 41.2941 44.4353 41.5764 44.4353C44.047 44.4353 45.9882 43.2705 46.9411 41.1882C48.2117 39.0353 47.7176 36.1058 45.847 34.3058Z" fill="white"/>
<path d="M45.3531 29.6824H40.5884V30.7771H45.3531V29.6824Z" fill="white"/>
<path d="M29.964 58.0235C14.5051 58.0235 1.94043 45.4588 1.94043 30C1.94043 14.5412 14.5404 2.01178 29.964 2.01178C45.3875 2.01178 57.9875 14.5765 57.9875 30.0353C57.9875 45.4941 45.4228 58.0235 29.964 58.0235ZM29.964 3.1059C15.1404 3.1059 3.03454 15.1765 3.03454 30.0353C3.03454 44.8941 15.1051 56.9647 29.964 56.9647C44.8228 56.9647 56.8934 44.8588 56.8934 30C56.8934 15.1412 44.8228 3.1059 29.964 3.1059Z" fill="white"/>
</svg>
