<svg width="114" height="71" viewBox="0 0 114 71" fill="none" xmlns="http://www.w3.org/2000/svg">
<path d="M96.127 68.321C96.0516 68.1958 95.951 68.1207 95.8505 68.0456C95.7248 67.9705 95.5991 67.9454 95.4483 67.9454C95.2723 67.9454 95.0963 67.9955 94.9958 68.0956C94.8701 68.1958 94.8198 68.321 94.8198 68.4962C94.8198 68.5713 94.845 68.6464 94.8701 68.6965C94.9204 68.7466 94.9707 68.7966 95.0209 68.8467C95.0712 68.8968 95.1466 68.9218 95.222 68.9468C95.2974 68.9719 95.3729 68.9969 95.4231 69.0219C96.2024 69.2222 96.5795 69.5477 96.5795 70.0484C96.5795 70.1986 96.5543 70.3238 96.4789 70.4489C96.4286 70.5741 96.3281 70.6742 96.2275 70.7494C96.127 70.8245 96.0013 70.8996 95.8505 70.9246C95.7248 70.9747 95.574 70.9997 95.4231 70.9997C95.1718 70.9997 94.9455 70.9496 94.7444 70.8245C94.5433 70.6993 94.3925 70.5491 94.3171 70.3238C94.2919 70.2487 94.3171 70.1986 94.3925 70.1735L94.5182 70.1235C94.5936 70.0984 94.6439 70.1235 94.669 70.1986L94.6941 70.2236C94.7193 70.2987 94.7695 70.3488 94.845 70.3989C94.8952 70.4489 94.9707 70.499 95.0461 70.524C95.1215 70.5491 95.1969 70.5991 95.2472 70.5991C95.3226 70.6242 95.3729 70.6242 95.4483 70.6242C95.5237 70.6242 95.6242 70.6242 95.6996 70.5991C95.8002 70.5741 95.8756 70.5491 95.951 70.499C96.0264 70.4489 96.1018 70.3989 96.1521 70.3238C96.2024 70.2487 96.2275 70.1735 96.2275 70.0734C96.2275 69.9733 96.2024 69.8982 96.1521 69.8231C96.1018 69.748 96.0264 69.6979 95.951 69.6478C95.8756 69.5977 95.7751 69.5477 95.6996 69.5226C95.5991 69.4976 95.4985 69.4726 95.4231 69.4475C95.2974 69.4225 95.1718 69.3724 95.0712 69.3224C94.9455 69.2723 94.845 69.1972 94.7696 69.1221C94.6941 69.047 94.6187 68.9719 94.5685 68.8717C94.5182 68.7716 94.493 68.6714 94.493 68.5463C94.493 68.2709 94.5936 68.0706 94.7696 67.8954C94.9455 67.7201 95.1969 67.645 95.4985 67.645C95.7248 67.645 95.9259 67.6951 96.1018 67.7702C96.2778 67.8703 96.4286 68.0205 96.5292 68.2208C96.5543 68.2459 96.5543 68.2709 96.5543 68.321C96.5543 68.346 96.5292 68.371 96.5041 68.3961L96.3784 68.4712C96.3281 68.5212 96.2778 68.4962 96.2275 68.4712L96.2024 68.4461C96.127 68.346 96.127 68.321 96.127 68.321Z" fill="white"/>
<path d="M99.7468 70.5486H99.8725C99.8976 70.5486 99.9479 70.5486 99.973 70.5736C99.9982 70.5736 100.023 70.6237 100.023 70.6487V70.824C100.023 70.874 99.9982 70.8991 99.973 70.8991C99.9479 70.8991 99.8976 70.9241 99.8725 70.9241H99.7719C99.6714 70.9241 99.5457 70.8991 99.4703 70.8991C99.3697 70.874 99.2943 70.824 99.2189 70.7739C99.1435 70.6988 99.0932 70.6237 99.0429 70.4985C98.9927 70.3733 98.9927 70.2482 98.9927 70.0479V68.02H98.5402C98.4899 68.02 98.4648 68.02 98.4396 67.995C98.4145 67.97 98.4145 67.9449 98.4145 67.8949V67.7697C98.4145 67.7196 98.4145 67.6946 98.4396 67.6695C98.4648 67.6445 98.4899 67.6445 98.5402 67.6445H98.9927V66.6681C98.9927 66.593 99.0429 66.568 99.0932 66.568L99.2692 66.543C99.3194 66.543 99.3446 66.543 99.3446 66.568C99.3697 66.593 99.3697 66.6431 99.3697 66.6681V67.6445H99.9479C100.048 67.6445 100.074 67.6946 100.074 67.7697V67.8698C100.074 67.9449 100.023 67.995 99.9479 67.995H99.3697V69.9477C99.3697 70.1731 99.3949 70.3483 99.4703 70.4234C99.5206 70.4985 99.6211 70.5235 99.7468 70.5486Z" fill="white"/>
<path d="M101.934 69.2722C101.934 69.0469 101.984 68.8216 102.059 68.6213C102.135 68.421 102.261 68.2458 102.411 68.0705C102.562 67.9203 102.738 67.7951 102.939 67.695C103.14 67.5949 103.367 67.5698 103.593 67.5698C103.819 67.5698 104.045 67.6199 104.246 67.695C104.448 67.7951 104.623 67.8953 104.774 68.0705C104.925 68.2207 105.026 68.396 105.126 68.6213C105.202 68.8216 105.252 69.0469 105.252 69.2722C105.252 69.4975 105.202 69.7228 105.126 69.9231C105.051 70.1234 104.925 70.2986 104.774 70.4739C104.623 70.6241 104.448 70.7493 104.246 70.8494C104.045 70.9496 103.819 70.9746 103.593 70.9746C103.367 70.9746 103.14 70.9245 102.939 70.8494C102.738 70.7493 102.562 70.6491 102.411 70.4739C102.261 70.3237 102.16 70.1484 102.059 69.9231C101.984 69.7228 101.934 69.4975 101.934 69.2722ZM102.311 69.2722C102.311 69.4475 102.336 69.6227 102.411 69.7979C102.487 69.9482 102.562 70.0984 102.688 70.2235C102.788 70.3487 102.939 70.4489 103.09 70.4989C103.241 70.574 103.417 70.5991 103.593 70.5991C103.769 70.5991 103.945 70.574 104.096 70.4989C104.246 70.4238 104.372 70.3237 104.498 70.2235C104.598 70.0984 104.699 69.9732 104.774 69.7979C104.85 69.6477 104.875 69.4725 104.875 69.2722C104.875 69.097 104.85 68.9217 104.774 68.7465C104.699 68.5963 104.623 68.4461 104.498 68.3209C104.372 68.1957 104.246 68.0956 104.096 68.0455C103.945 67.9704 103.769 67.9454 103.593 67.9454C103.417 67.9454 103.241 67.9704 103.09 68.0455C102.939 68.1206 102.788 68.2207 102.688 68.3209C102.587 68.4461 102.487 68.5712 102.411 68.7465C102.361 68.9217 102.311 69.097 102.311 69.2722Z" fill="white"/>
<path d="M107.389 70.7747V67.7955C107.389 67.6954 107.414 67.6453 107.489 67.6453H107.665C107.716 67.6453 107.741 67.6453 107.741 67.6703C107.741 67.6954 107.766 67.7204 107.766 67.7705V68.146C107.816 67.9707 107.942 67.8456 108.093 67.7454C108.243 67.6453 108.419 67.5952 108.646 67.5952C108.746 67.5952 108.847 67.6203 108.972 67.6453C109.098 67.6703 109.199 67.7204 109.274 67.7705C109.299 67.7955 109.324 67.8205 109.35 67.8456C109.375 67.8706 109.375 67.9207 109.35 67.9457L109.249 68.0959C109.224 68.1209 109.199 68.146 109.174 68.121C109.148 68.121 109.123 68.1209 109.098 68.0959C109.048 68.0458 108.972 68.0208 108.872 67.9958C108.796 67.9707 108.696 67.9457 108.621 67.9457C108.495 67.9457 108.394 67.9707 108.294 68.0208C108.193 68.0709 108.093 68.146 108.017 68.2461C107.942 68.3463 107.892 68.4464 107.841 68.5716C107.791 68.6968 107.766 68.8219 107.766 68.9471V70.7246C107.766 70.7997 107.716 70.8498 107.64 70.8498H107.489C107.439 70.8748 107.389 70.8498 107.389 70.7747Z" fill="white"/>
<path d="M112.492 70.9497C112.265 70.9497 112.064 70.8996 111.863 70.8245C111.662 70.7244 111.486 70.6242 111.36 70.449C111.21 70.2988 111.109 70.1235 111.009 69.8982C110.933 69.6979 110.883 69.4726 110.883 69.2473C110.883 69.022 110.933 68.7967 111.009 68.5964C111.084 68.3961 111.21 68.2209 111.335 68.0456C111.486 67.8954 111.637 67.7702 111.838 67.6701C112.039 67.57 112.24 67.5449 112.441 67.5449C112.642 67.5449 112.844 67.595 113.02 67.6701C113.196 67.7452 113.371 67.8704 113.497 68.0206C113.623 68.1708 113.749 68.346 113.824 68.5463C113.899 68.7466 113.95 68.9469 113.95 69.1722C113.95 69.2473 113.925 69.2974 113.874 69.3224C113.824 69.3474 113.774 69.3725 113.698 69.3725H111.26C111.26 69.5227 111.31 69.6979 111.36 69.8231C111.436 69.9733 111.511 70.0985 111.612 70.1986C111.712 70.2988 111.838 70.3989 111.989 70.449C112.14 70.4991 112.291 70.5491 112.441 70.5491H112.467C112.642 70.5491 112.818 70.4991 112.994 70.424C113.17 70.3488 113.296 70.2487 113.422 70.1235C113.447 70.0985 113.472 70.0735 113.522 70.0735C113.547 70.0735 113.573 70.0735 113.598 70.0985L113.673 70.1986C113.698 70.2237 113.723 70.2737 113.723 70.2988C113.723 70.3238 113.698 70.3739 113.648 70.3989C113.497 70.5491 113.321 70.6493 113.12 70.7494C112.944 70.9247 112.743 70.9497 112.492 70.9497ZM112.467 67.9455C112.316 67.9455 112.19 67.9705 112.064 68.0206C111.939 68.0707 111.813 68.1458 111.712 68.2459C111.612 68.346 111.536 68.4462 111.461 68.5964C111.386 68.7216 111.335 68.8718 111.31 69.022H113.623C113.598 68.8718 113.573 68.7216 113.497 68.5964C113.422 68.4712 113.346 68.346 113.246 68.2459C113.145 68.1458 113.02 68.0707 112.894 68.0206C112.743 67.9705 112.592 67.9455 112.467 67.9455Z" fill="white"/>
<path d="M0 51.2716H5.20353V51.4719H3.41874L3.39361 56.6291H8.29548V51.4969L6.48556 51.4719V51.2716C7.06373 51.2716 7.86814 51.2716 8.89879 51.2716C9.92944 51.2716 10.8595 51.2716 11.7394 51.2466V51.4719H9.80375V63.5889H11.7645V63.7891H6.46042L6.43528 63.5889H8.27034V56.8795H3.39361V63.5889H5.17839V63.8142H0.0502756V63.5889H1.8602V51.4469H0.0251378L0 51.2716Z" fill="white"/>
<path d="M21.4174 51.4971C21.5431 51.8976 22.0458 53.3997 22.8754 55.9783C23.7049 58.582 24.2579 60.2844 24.5345 61.0855C24.7858 61.8866 25.0624 62.7378 25.3389 63.589H26.8974L26.8471 63.7893L21.7693 63.8393L21.7944 63.614H23.5792L22.448 59.7837H18.7276L17.8227 62.5626C17.7975 62.6877 17.7975 62.7628 17.7975 62.8129C17.7975 63.3386 18.4762 63.614 19.8086 63.614V63.8143H15.5854V63.614C16.5658 63.614 17.1691 63.2385 17.4205 62.4874C17.6718 61.6863 18.0489 60.4346 18.5768 58.7322C19.1047 57.0048 19.6074 55.3775 20.0851 53.8253C20.5627 52.2732 20.8141 51.422 20.8392 51.2717C20.8643 51.2217 20.8895 51.2217 20.9649 51.2217C21.0403 51.2217 21.1157 51.2467 21.2163 51.2968C21.3168 51.3719 21.3671 51.422 21.4174 51.4971ZM22.3475 59.5083L20.5375 53.7252L18.8282 59.5083H22.3475Z" fill="white"/>
<path d="M31.1207 51.2717C31.3469 51.2717 31.6234 51.2717 32.0005 51.2717C32.3776 51.2717 32.7546 51.2467 33.1317 51.2467C33.5088 51.2467 33.8356 51.2217 34.1623 51.2217C34.464 51.2217 34.7405 51.2217 34.9165 51.2217C35.746 51.2217 36.475 51.2467 37.1035 51.3218C37.7319 51.3969 38.3101 51.5221 38.7877 51.7224C39.2905 51.9227 39.6927 52.2231 39.9943 52.5986C40.296 52.9741 40.4971 53.4748 40.5725 54.0506C40.5976 54.276 40.5976 54.4262 40.5976 54.5263C40.5976 55.4526 40.1954 56.3038 39.391 57.0548C38.8128 57.5806 37.8827 57.856 36.5504 57.856C36.3242 57.856 35.6455 57.8059 34.4891 57.7308V63.0382C34.4891 63.4137 35.1427 63.589 36.4499 63.589V63.7893L31.1709 63.8143V63.589C31.4726 63.589 31.8245 63.5389 32.277 63.4638C32.7295 63.3887 32.9306 63.2135 32.9306 62.9381L32.9055 51.447H31.0955V51.2717H31.1207ZM38.7374 52.6236C38.6369 52.2731 38.3855 52.0228 38.0084 51.8476C37.6314 51.6723 37.204 51.5722 36.7515 51.5221C36.2991 51.472 35.7712 51.447 35.2181 51.447H34.5143V57.4554C35.5701 57.5555 36.1985 57.6056 36.4499 57.6056C37.5308 57.6056 38.2598 57.3302 38.6369 56.8045C38.9637 56.3539 39.1396 55.6779 39.1396 54.8267C39.1145 54.1007 38.9888 53.3497 38.7374 52.6236Z" fill="white"/>
<path d="M44.9213 51.2717C45.1475 51.2717 45.424 51.2717 45.8011 51.2717C46.1781 51.2717 46.5552 51.2467 46.9323 51.2467C47.3093 51.2467 47.6361 51.2217 47.9629 51.2217C48.2646 51.2217 48.516 51.2217 48.7171 51.2217C49.5466 51.2217 50.2756 51.2467 50.9041 51.3218C51.5325 51.3969 52.1107 51.5221 52.5883 51.7224C53.091 51.9227 53.4933 52.2231 53.7949 52.5986C54.0966 52.9741 54.2977 53.4748 54.3731 54.0506C54.3982 54.276 54.3982 54.4262 54.3982 54.5263C54.3982 55.4526 53.996 56.3038 53.1916 57.0548C52.6134 57.5806 51.6833 57.856 50.351 57.856C50.1248 57.856 49.4461 57.8059 48.2897 57.7308V63.0382C48.2897 63.4137 48.9433 63.589 50.2505 63.589V63.7893L44.9715 63.8143V63.589C45.2732 63.589 45.6251 63.5389 46.0776 63.4638C46.5301 63.3887 46.7312 63.2135 46.7312 62.9381L46.706 51.447H44.8961V51.2717H44.9213ZM52.538 52.6236C52.4375 52.2731 52.1861 52.0228 51.809 51.8476C51.432 51.6723 51.0046 51.5722 50.5521 51.5221C50.0996 51.472 49.5718 51.447 49.0187 51.447H48.3149V57.4554C49.3706 57.5555 49.9991 57.6056 50.2505 57.6056C51.3314 57.6056 52.0604 57.3302 52.4375 56.8045C52.7643 56.3539 52.9402 55.6779 52.9402 54.8267C52.9151 54.1007 52.7894 53.3497 52.538 52.6236Z" fill="white"/>
<path d="M57.6411 51.2969H62.9954V51.4972H60.9844L63.9255 57.3053L65.8611 52.8491C65.9617 52.6488 65.9868 52.4735 65.9868 52.3233C65.9868 51.7725 65.3835 51.4972 64.1769 51.4972V51.2969H68.5257V51.4972C67.4197 51.4972 66.5901 52.0479 66.0874 53.1745L64.0261 57.831V63.6642H65.9868V63.9145L60.6576 63.8895V63.6892H62.4675V57.5807L59.3253 51.4972H57.6159V51.2969H57.6411Z" fill="white"/>
<path d="M78.1283 51.272H85.7703L79.8377 63.6393C80.0137 63.6393 80.2651 63.6393 80.617 63.6393C80.9689 63.6393 81.2203 63.6393 81.3963 63.6393C82.2509 63.6393 82.9799 63.5391 83.5833 63.3389C84.1614 63.1386 84.6139 62.7631 84.9407 62.1872C85.1418 61.8117 85.3178 61.4112 85.4435 61.0106C85.5691 60.585 85.6948 60.0843 85.7954 59.4584C85.9211 58.8576 85.9965 58.432 86.0468 58.2067L86.2227 58.2317L86.1725 63.8396H78.1786C78.3546 63.4891 78.7065 62.738 79.2847 61.5363C79.8629 60.3347 80.2148 59.6086 80.3405 59.3333C80.4662 59.0579 80.9941 57.9563 81.9242 56.0286C82.8543 54.0759 83.5833 52.5988 84.0609 51.5474C83.8849 51.5474 83.5833 51.5474 83.2062 51.5223C82.8291 51.5223 82.5275 51.4973 82.3264 51.4973C81.1952 51.4973 80.3656 51.7226 79.8377 52.1983C79.5109 52.5237 79.2344 52.8992 79.0333 53.2998C78.8322 53.7004 78.6814 54.126 78.5808 54.5766C78.4803 55.0022 78.3797 55.5279 78.2792 56.1288H78.1283V51.272Z" fill="white"/>
<path d="M96.3281 51.397C96.9314 51.397 97.4845 51.5722 97.9872 51.9477C98.49 52.2982 98.9173 52.7489 99.2692 53.2996C99.6463 53.8754 99.948 54.5764 100.174 55.3775C100.375 56.1787 100.476 57.0299 100.476 57.9311C100.476 59.5334 100.174 60.8352 99.5709 61.8366C99.2944 62.3122 98.8419 62.7879 98.2386 63.2385C97.6353 63.6892 96.9566 63.9145 96.1773 63.9145C95.398 63.9145 94.8198 63.7893 94.4176 63.539C94.0154 63.2886 93.5881 62.8129 93.1105 62.162C92.8088 61.7114 92.5826 61.2608 92.3815 60.7601C92.1804 60.2594 92.0295 59.7336 91.929 59.1829C91.8284 58.6321 91.7782 58.0813 91.7782 57.5306C91.7782 55.9283 92.1552 54.5764 92.9345 53.4248C93.7389 52.0729 94.8701 51.422 96.3281 51.397ZM96.3281 51.6473C95.6997 51.6473 95.222 51.7975 94.8701 52.0729C94.5182 52.3483 94.292 52.6237 94.1914 52.8991C93.9903 53.4749 93.8395 54.2259 93.7138 55.2023C93.5881 56.1787 93.5378 57.155 93.5378 58.1314C93.5378 59.6335 93.6635 60.8352 93.8897 61.7615C94.0154 62.162 94.1411 62.4625 94.2668 62.6377C94.4176 62.8129 94.5936 63.0132 94.845 63.2135C95.222 63.4889 95.6243 63.6391 96.0767 63.6391C96.5292 63.6391 96.9817 63.4889 97.4342 63.1885C97.6604 63.0132 97.8867 62.7879 98.0878 62.4875C98.2889 62.1871 98.3894 61.8867 98.4146 61.5862C98.49 60.6599 98.5654 59.8338 98.5905 59.1829C98.6408 58.5069 98.6659 57.856 98.6659 57.2051C98.6659 55.5027 98.49 54.0507 98.1632 52.8991C98.0878 52.5987 97.8615 52.3233 97.5096 52.0729C97.1325 51.7725 96.7555 51.6473 96.3281 51.6473Z" fill="white"/>
<path d="M109.852 51.397C110.456 51.397 111.009 51.5722 111.511 51.9477C112.014 52.2982 112.441 52.7489 112.793 53.2996C113.17 53.8754 113.472 54.5764 113.698 55.3775C113.899 56.1787 114 57.0299 114 57.9311C114 59.5334 113.698 60.8352 113.095 61.8366C112.819 62.3122 112.366 62.7879 111.763 63.2385C111.159 63.6892 110.481 63.9145 109.701 63.9145C108.922 63.9145 108.344 63.7893 107.917 63.539C107.514 63.2886 107.087 62.8129 106.609 62.162C106.308 61.7114 106.082 61.2608 105.881 60.7601C105.679 60.2594 105.529 59.7336 105.428 59.1829C105.327 58.6321 105.277 58.0813 105.277 57.5306C105.277 55.9283 105.654 54.5764 106.434 53.4248C107.263 52.0729 108.419 51.422 109.852 51.397ZM109.877 51.6473C109.249 51.6473 108.771 51.7975 108.419 52.0729C108.067 52.3483 107.841 52.6237 107.741 52.8991C107.54 53.4749 107.389 54.2259 107.263 55.2023C107.137 56.1787 107.087 57.155 107.087 58.1314C107.087 59.6335 107.213 60.8352 107.439 61.7615C107.565 62.162 107.69 62.4625 107.816 62.6377C107.967 62.8129 108.168 63.0132 108.394 63.2135C108.771 63.4889 109.174 63.6391 109.626 63.6391C110.079 63.6391 110.531 63.4889 110.983 63.1885C111.21 63.0132 111.436 62.7879 111.637 62.4875C111.838 62.1871 111.939 61.8867 111.964 61.5862C112.039 60.6599 112.09 59.8338 112.14 59.1829C112.19 58.5069 112.215 57.856 112.215 57.2051C112.215 55.5027 112.039 54.0507 111.712 52.8991C111.637 52.5987 111.411 52.3233 111.059 52.0729C110.682 51.7725 110.305 51.6473 109.877 51.6473Z" fill="white"/>
<path d="M78.375 21.2998C78.375 33.0774 68.794 42.5996 57 42.5996C45.1809 42.5996 35.625 33.0523 35.625 21.2998C35.625 9.54733 45.206 0 57 0C68.794 0 78.375 9.54733 78.375 21.2998Z" fill="#CDD8A7"/>
<path d="M68.291 24.3572C66.6564 22.7785 63.9406 22.7785 60.8475 24.3321C55.3654 27.1136 50.336 27.69 47.3686 25.8857C45.9353 25.0087 45.1305 23.6054 45.1305 21.9014C45.1305 19.571 46.5388 18.1928 47.6955 17.441C50.0342 15.9625 53.58 15.712 55.9438 16.8145C56.0444 16.8647 56.1701 16.8647 56.2707 16.8145C56.3713 16.7644 56.4467 16.6892 56.497 16.5639C57.1005 14.5091 58.1819 12.73 58.71 11.9281C59.062 12.4293 59.6153 13.3564 60.1433 14.4841C60.2188 14.6344 60.3445 14.7096 60.4954 14.7096H61.4258C61.5767 14.7096 61.7276 14.6094 61.7779 14.4841C62.306 13.3564 62.8844 12.4543 63.2113 11.9281C63.9406 13.0056 65.6757 15.8623 65.8517 18.8192H64.5189V19.596H67.9138V18.8192H66.6313C66.4301 14.8349 63.6388 11.1513 63.5131 11.0009C63.4376 10.9007 63.337 10.8506 63.2113 10.8506C63.0856 10.8506 62.985 10.9007 62.9095 11.0009C62.8592 11.0511 62.0042 12.2038 61.1744 13.9077H60.7217C59.8919 12.2038 59.0369 11.0511 58.9866 11.0009C58.8357 10.8005 58.5088 10.8005 58.3579 11.0009C58.2825 11.1012 56.6982 13.181 55.8181 15.8874C53.2028 14.86 49.657 15.1857 47.2177 16.7394C45.885 17.5914 44.2755 19.145 44.2755 21.8513C44.2755 23.8059 45.206 25.4598 46.8908 26.4872C50.0845 28.4417 55.4157 27.8654 61.1241 24.9586C63.8903 23.5553 66.2792 23.5052 67.6623 24.8333C68.7436 25.8607 69.0454 27.6148 68.3916 28.993C67.7629 30.3211 66.4553 30.9726 64.7453 30.7972C63.5885 30.6719 62.8341 30.1457 62.5575 29.2436C62.2808 28.3665 62.5826 27.3391 63.2616 26.7628C63.84 26.2867 64.5944 26.2616 65.3739 26.6626C65.8014 26.8881 65.9272 27.3893 65.902 27.7651C65.8769 28.1661 65.726 28.4417 65.5751 28.4918L65.8769 29.2185C66.3295 29.0181 66.6313 28.4668 66.6564 27.7902C66.6816 27.1637 66.4553 26.3368 65.7008 25.9609C64.6195 25.4096 63.5382 25.4598 62.7335 26.1363C61.8282 26.8881 61.4258 28.2663 61.7779 29.4441C62.13 30.6218 63.1861 31.3986 64.6447 31.5239C64.8458 31.549 65.047 31.549 65.2482 31.549C67.0085 31.549 68.3916 30.7221 69.0706 29.2436C69.9758 27.715 69.6238 25.6352 68.291 24.3572Z" fill="white"/>
<path d="M67.9391 21.0747H64.5442V21.852H67.9391V21.0747Z" fill="white"/>
<path d="M56.9743 41.1962C45.9599 41.1962 37.0076 32.2754 37.0076 21.2997C37.0076 10.324 45.9851 1.42822 56.9743 1.42822C67.9636 1.42822 76.9411 10.3491 76.9411 21.3248C76.9411 32.3004 67.9887 41.1962 56.9743 41.1962ZM56.9743 2.20504C46.4126 2.20504 37.7871 10.7751 37.7871 21.3248C37.7871 31.8744 46.3874 40.4445 56.9743 40.4445C67.5612 40.4445 76.1615 31.8494 76.1615 21.2997C76.1615 10.75 67.5612 2.20504 56.9743 2.20504Z" fill="white"/>
</svg>
