<svg width="21" height="21" viewBox="0 0 21 21" fill="none" xmlns="http://www.w3.org/2000/svg">
<path d="M15.2858 12.0068C15.0914 11.8154 14.7998 11.8154 14.6054 12.0068C14.6054 12.0068 13.2446 13.2511 13.1474 13.3468C13.1474 13.3468 13.1474 13.3468 13.0502 13.4425C11.6894 14.1125 6.63501 8.84836 7.60701 7.89124L9.06501 6.55128C9.25941 6.35985 9.25941 6.07272 9.06501 5.8813L4.49661 1.09571C4.39941 1.09571 4.30222 1 4.10782 1C4.01062 1 3.91342 1 3.81622 1.09571C1.48342 3.39279 -2.21018 5.68987 6.44061 14.3996C15.0914 23.0137 17.5214 19.7595 19.8542 17.271C20.0486 17.0796 20.0486 16.7924 19.8542 16.601L15.2858 12.0068Z" stroke="#E5E5E5" stroke-miterlimit="10" stroke-linecap="round" stroke-linejoin="round"/>
</svg>
